<?xml version="1.0" encoding="UTF-8" standalone="no"?>
<!-- Created with Inkscape (http://www.inkscape.org/) -->

<svg
   xmlns:dc="http://purl.org/dc/elements/1.1/"
   xmlns:cc="http://creativecommons.org/ns#"
   xmlns:rdf="http://www.w3.org/1999/02/22-rdf-syntax-ns#"
   xmlns:svg="http://www.w3.org/2000/svg"
   xmlns="http://www.w3.org/2000/svg"
   xmlns:sodipodi="http://sodipodi.sourceforge.net/DTD/sodipodi-0.dtd"
   xmlns:inkscape="http://www.inkscape.org/namespaces/inkscape"
   width="64mm"
   height="64mm"
   viewBox="0 0 64.000001 64"
   version="1.1"
   id="svg8"
   inkscape:version="0.92.3 (2405546, 2018-03-11)"
   sodipodi:docname="hand-me-a-coffee-logo.svg">
  <defs
     id="defs2" />
  <sodipodi:namedview
     id="base"
     pagecolor="#ffffff"
     bordercolor="#666666"
     borderopacity="1.0"
     inkscape:pageopacity="0.0"
     inkscape:pageshadow="2"
     inkscape:zoom="1.4"
     inkscape:cx="85.937415"
     inkscape:cy="88.905729"
     inkscape:document-units="mm"
     inkscape:current-layer="layer2"
     showgrid="false"
     inkscape:window-width="1920"
     inkscape:window-height="1051"
     inkscape:window-x="0"
     inkscape:window-y="158"
     inkscape:window-maximized="1"
     fit-margin-top="0"
     fit-margin-left="0"
     fit-margin-right="0"
     fit-margin-bottom="0" />
  <metadata
     id="metadata5">
    <rdf:RDF>
      <cc:Work
         rdf:about="">
        <dc:format>image/svg+xml</dc:format>
        <dc:type
           rdf:resource="http://purl.org/dc/dcmitype/StillImage" />
        <dc:title></dc:title>
      </cc:Work>
    </rdf:RDF>
  </metadata>
  <g
     inkscape:groupmode="layer"
     id="layer2"
     inkscape:label="Layer 2"
     style="display:inline"
     transform="translate(-51.590616,-95.477116)">
    <ellipse
       style="color:#000000;display:inline;overflow:visible;visibility:visible;opacity:1;fill:none;fill-opacity:1;fill-rule:evenodd;stroke:#060000;stroke-width:1.99999964;stroke-linecap:round;stroke-linejoin:round;stroke-miterlimit:4;stroke-dasharray:none;stroke-dashoffset:0;stroke-opacity:1;marker:none;paint-order:normal;enable-background:accumulate"
       id="path27"
       cx="83.590614"
       cy="127.47712"
       rx="28.907164"
       ry="30.953999" />
    <g
       aria-label="hand"
       style="font-style:normal;font-variant:normal;font-weight:500;font-stretch:normal;font-size:9.17222214px;line-height:125%;font-family:Nauman;-inkscape-font-specification:'Nauman, Medium';font-variant-ligatures:no-common-ligatures;font-variant-caps:normal;font-variant-numeric:normal;font-feature-settings:normal;text-align:start;letter-spacing:1.33614588px;word-spacing:0px;writing-mode:lr-tb;text-anchor:start;fill:#000000;fill-opacity:1;stroke:none;stroke-width:0.26886237px;stroke-linecap:butt;stroke-linejoin:miter;stroke-opacity:1"
       id="text23"
       transform="matrix(0.98406707,0,0,0.98410173,2.9307604,2.4735137)">
      <path
         d="m 64.172637,109.48666 v 6.42055 h 0.779639 v -3.45793 c 0.41275,-0.3944 1.109839,-0.67874 1.687689,-0.67874 0.587022,0 0.972256,0.27517 0.972256,0.8897 v 3.24697 h 0.779639 v -3.33869 c 0,-0.93556 -0.678745,-1.32997 -1.467556,-1.32997 -0.651228,0 -1.430867,0.28434 -1.972028,0.69709 v -2.44898 z"
         style="font-style:normal;font-variant:normal;font-weight:500;font-stretch:normal;font-size:9.17222214px;font-family:Nauman;-inkscape-font-specification:'Nauman, Medium';font-variant-ligatures:no-common-ligatures;font-variant-caps:normal;font-variant-numeric:normal;font-feature-settings:normal;text-align:start;letter-spacing:1.33614588px;writing-mode:lr-tb;text-anchor:start;stroke-width:0.26886237px"
         id="path887"
         inkscape:connector-curvature="0" />
      <path
         d="m 73.105963,111.22938 c -0.605367,0 -1.247422,0.10089 -1.926167,0.31185 v 0.4953 c 0.724606,-0.21096 1.329972,-0.32102 1.834445,-0.32102 0.797983,0 1.348316,0.29351 1.348316,1.00894 v 0.41275 h -1.834444 c -0.8255,0 -1.724378,0.43109 -1.724378,1.43087 0,0.94474 0.623711,1.42169 1.531761,1.42169 0.6604,-0.009 1.412522,-0.25682 2.027061,-0.68792 v 0.60537 h 0.779639 v -3.18276 c 0,-1.11901 -0.917222,-1.49507 -2.036233,-1.49507 z m 1.256594,3.67806 c -0.550333,0.3944 -1.137355,0.59619 -1.761066,0.60537 -0.651228,0 -1.07315,-0.32103 -1.07315,-0.9906 0,-0.6604 0.559505,-0.9906 1.247422,-0.9906 h 1.586794 z"
         style="font-style:normal;font-variant:normal;font-weight:500;font-stretch:normal;font-size:9.17222214px;font-family:Nauman;-inkscape-font-specification:'Nauman, Medium';font-variant-ligatures:no-common-ligatures;font-variant-caps:normal;font-variant-numeric:normal;font-feature-settings:normal;text-align:start;letter-spacing:1.33614588px;writing-mode:lr-tb;text-anchor:start;stroke-width:0.26886237px"
         id="path889"
         inkscape:connector-curvature="0" />
      <path
         d="m 80.586064,111.23855 c -0.6604,0 -1.467556,0.30268 -1.972028,0.69709 v -0.61454 h -0.779639 v 4.58611 h 0.779639 v -3.45793 c 0.41275,-0.3944 1.109839,-0.67874 1.687689,-0.67874 0.541161,0 0.972255,0.23848 0.972255,0.8897 v 3.24697 h 0.779639 v -3.33869 c 0,-0.88053 -0.614539,-1.32997 -1.467555,-1.32997 z"
         style="font-style:normal;font-variant:normal;font-weight:500;font-stretch:normal;font-size:9.17222214px;font-family:Nauman;-inkscape-font-specification:'Nauman, Medium';font-variant-ligatures:no-common-ligatures;font-variant-caps:normal;font-variant-numeric:normal;font-feature-settings:normal;text-align:start;letter-spacing:1.33614588px;writing-mode:lr-tb;text-anchor:start;stroke-width:0.26886237px"
         id="path891"
         inkscape:connector-curvature="0" />
      <path
         d="m 88.97909,109.48666 h -0.779639 v 2.21967 c -0.531989,-0.32102 -1.063978,-0.47695 -1.595967,-0.47695 -1.504244,0 -2.072922,1.10066 -2.072922,2.39395 0,1.25659 0.587022,2.3756 2.118783,2.3756 0.541161,0 1.183217,-0.29351 1.623483,-0.69709 l 0.02752,0.60537 h 0.678745 z m -2.100439,2.27471 c 0.440266,0.009 0.880533,0.14675 1.3208,0.42192 v 2.6416 c -0.339373,0.37606 -0.862189,0.63288 -1.329973,0.64205 -1.063977,0 -1.56845,-0.70626 -1.56845,-1.85278 0,-1.08233 0.449439,-1.85279 1.577623,-1.85279 z"
         style="font-style:normal;font-variant:normal;font-weight:500;font-stretch:normal;font-size:9.17222214px;font-family:Nauman;-inkscape-font-specification:'Nauman, Medium';font-variant-ligatures:no-common-ligatures;font-variant-caps:normal;font-variant-numeric:normal;font-feature-settings:normal;text-align:start;letter-spacing:1.33614588px;writing-mode:lr-tb;text-anchor:start;stroke-width:0.26886237px"
         id="path893"
         inkscape:connector-curvature="0" />
    </g>
    <g
       aria-label="me a"
       style="font-style:normal;font-variant:normal;font-weight:500;font-stretch:normal;font-size:9.17222214px;line-height:125%;font-family:Nauman;-inkscape-font-specification:'Nauman, Medium';font-variant-ligatures:no-common-ligatures;font-variant-caps:normal;font-variant-numeric:normal;font-feature-settings:normal;text-align:start;letter-spacing:1.15093756px;word-spacing:0px;writing-mode:lr-tb;text-anchor:start;fill:#000000;fill-opacity:1;stroke:none;stroke-width:0.26886237px;stroke-linecap:butt;stroke-linejoin:miter;stroke-opacity:1"
       id="text27"
       transform="matrix(0.98406707,0,0,0.98410173,2.9307604,2.4735137)">
      <path
         d="m 70.218256,120.23841 c -0.678744,0 -1.476728,0.33937 -1.990372,0.75212 -0.192617,-0.50447 -0.669572,-0.75212 -1.265767,-0.75212 -0.614539,0 -1.348316,0.27516 -1.861961,0.66957 v -0.58702 h -0.779639 v 4.58611 h 0.779639 v -3.50379 c 0.41275,-0.37606 1.036461,-0.63289 1.577622,-0.63289 0.541161,0 0.898878,0.27517 0.898878,0.88971 v 3.24697 h 0.779639 v -3.22863 c 0,-0.10089 0,-0.19261 -0.0092,-0.26599 0.403578,-0.37606 1.045633,-0.64206 1.586794,-0.64206 0.541161,0 0.90805,0.27517 0.90805,0.88971 v 3.24697 h 0.770467 v -3.33869 c 0,-0.88054 -0.57785,-1.32997 -1.394178,-1.32997 z"
         style="font-style:normal;font-variant:normal;font-weight:500;font-stretch:normal;font-size:9.17222214px;font-family:Nauman;-inkscape-font-specification:'Nauman, Medium';font-variant-ligatures:no-common-ligatures;font-variant-caps:normal;font-variant-numeric:normal;font-feature-settings:normal;text-align:start;letter-spacing:1.15093756px;writing-mode:lr-tb;text-anchor:start;stroke-width:0.26886237px"
         id="path880"
         inkscape:connector-curvature="0" />
      <path
         d="m 76.252111,120.22923 c -1.724378,0 -2.357261,1.12819 -2.357261,2.38478 0,1.73355 1.091495,2.38478 2.458156,2.38478 0.559505,0 1.1557,-0.11007 1.806927,-0.3302 v -0.53199 c -0.201788,0.0825 -0.504472,0.15593 -0.898877,0.22931 -0.394406,0.0642 -0.706261,0.10089 -0.953911,0.10089 -0.999773,0 -1.540934,-0.51364 -1.623484,-1.54093 h 3.678061 c 0.0092,-0.1009 0.01834,-0.20179 0.01834,-0.31186 0,-1.26577 -0.513645,-2.38478 -2.127956,-2.38478 z m -0.0092,0.4311 c 0.963083,0 1.421694,0.67874 1.412522,1.74272 v 0.12841 h -2.980972 v -0.12841 c 0,-1.06398 0.504472,-1.74272 1.56845,-1.74272 z"
         style="font-style:normal;font-variant:normal;font-weight:500;font-stretch:normal;font-size:9.17222214px;font-family:Nauman;-inkscape-font-specification:'Nauman, Medium';font-variant-ligatures:no-common-ligatures;font-variant-caps:normal;font-variant-numeric:normal;font-feature-settings:normal;text-align:start;letter-spacing:1.15093756px;writing-mode:lr-tb;text-anchor:start;stroke-width:0.26886237px"
         id="path882"
         inkscape:connector-curvature="0" />
      <path
         d="m 86.433785,120.22923 c -0.605367,0 -1.247422,0.1009 -1.926167,0.31186 v 0.4953 c 0.724606,-0.21096 1.329973,-0.32103 1.834445,-0.32103 0.797983,0 1.348316,0.29351 1.348316,1.00895 v 0.41275 h -1.834444 c -0.8255,0 -1.724378,0.43109 -1.724378,1.43086 0,0.94474 0.623711,1.4217 1.531761,1.4217 0.6604,-0.009 1.412523,-0.25683 2.027061,-0.68792 v 0.60537 h 0.779639 v -3.18276 c 0,-1.11902 -0.917222,-1.49508 -2.036233,-1.49508 z m 1.256594,3.67806 c -0.550333,0.39441 -1.137355,0.5962 -1.761066,0.60537 -0.651228,0 -1.07315,-0.32103 -1.07315,-0.9906 0,-0.6604 0.559505,-0.9906 1.247422,-0.9906 h 1.586794 z"
         style="font-style:normal;font-variant:normal;font-weight:500;font-stretch:normal;font-size:9.17222214px;font-family:Nauman;-inkscape-font-specification:'Nauman, Medium';font-variant-ligatures:no-common-ligatures;font-variant-caps:normal;font-variant-numeric:normal;font-feature-settings:normal;text-align:start;letter-spacing:1.15093756px;writing-mode:lr-tb;text-anchor:start;stroke-width:0.26886237px"
         id="path884"
         inkscape:connector-curvature="0" />
    </g>
    <g
       aria-label="coffee"
       style="font-style:normal;font-variant:normal;font-weight:500;font-stretch:normal;font-size:9.17222214px;line-height:125%;font-family:Nauman;-inkscape-font-specification:'Nauman, Medium';font-variant-ligatures:no-common-ligatures;font-variant-caps:normal;font-variant-numeric:normal;font-feature-settings:normal;text-align:start;letter-spacing:0.83079165px;word-spacing:0px;writing-mode:lr-tb;text-anchor:start;fill:#000000;fill-opacity:1;stroke:none;stroke-width:0.26886237px;stroke-linecap:butt;stroke-linejoin:miter;stroke-opacity:1"
       id="text31"
       transform="matrix(0.98406707,0,0,0.98410173,2.9307604,2.4735137)">
      <path
         d="m 66.498908,129.69967 c -1.293283,0 -2.384778,0.79798 -2.384778,2.38478 0,1.58679 1.091495,2.36643 2.357261,2.38477 0.559506,0 1.091495,-0.12841 1.614312,-0.38523 v -0.54116 c -0.440267,0.21096 -0.871362,0.3302 -1.302456,0.33937 -0.07338,0.009 -0.146756,0.009 -0.220133,0.009 -1.063978,0 -1.669345,-0.56867 -1.669345,-1.80692 0,-1.23825 0.605367,-1.80693 1.669345,-1.80693 0.07338,0 0.146755,0 0.220133,0.009 0.431094,0.009 0.862189,0.12841 1.302456,0.33937 v -0.55033 c -0.522817,-0.24765 -1.054806,-0.37606 -1.586795,-0.37606 z"
         style="font-style:normal;font-variant:normal;font-weight:500;font-stretch:normal;font-size:9.17222214px;font-family:Nauman;-inkscape-font-specification:'Nauman, Medium';font-variant-ligatures:no-common-ligatures;font-variant-caps:normal;font-variant-numeric:normal;font-feature-settings:normal;text-align:start;letter-spacing:0.83079165px;writing-mode:lr-tb;text-anchor:start;stroke-width:0.26886237px"
         id="path867"
         inkscape:connector-curvature="0" />
      <path
         d="m 74.541359,132.08445 c 0,-0.94474 -0.348544,-1.8161 -1.265766,-2.19216 -0.311856,-0.12842 -0.678745,-0.19262 -1.100667,-0.19262 -0.41275,0 -0.779639,0.0642 -1.091494,0.19262 -0.311856,0.12841 -0.559506,0.30268 -0.74295,0.53198 -0.357717,0.44944 -0.522817,0.99978 -0.522817,1.66018 0,0.3302 0.04586,0.63288 0.128411,0.90805 0.256822,0.83467 0.935567,1.47672 2.22885,1.47672 1.73355,0 2.366433,-1.12818 2.366433,-2.38477 z m -1.174044,-1.36666 c 0.265994,0.32102 0.394405,0.77046 0.394405,1.36666 0,0.59619 -0.128411,1.0548 -0.394405,1.37583 -0.256822,0.32103 -0.651228,0.47696 -1.192389,0.47696 -0.531989,0 -0.926394,-0.15593 -1.192389,-0.47696 -0.256822,-0.32103 -0.385233,-0.77964 -0.385233,-1.37583 0,-0.5962 0.128411,-1.04564 0.385233,-1.36666 0.265995,-0.32103 0.6604,-0.48613 1.192389,-0.48613 0.541161,0 0.935567,0.1651 1.192389,0.48613 z"
         style="font-style:normal;font-variant:normal;font-weight:500;font-stretch:normal;font-size:9.17222214px;font-family:Nauman;-inkscape-font-specification:'Nauman, Medium';font-variant-ligatures:no-common-ligatures;font-variant-caps:normal;font-variant-numeric:normal;font-feature-settings:normal;text-align:start;letter-spacing:0.83079165px;writing-mode:lr-tb;text-anchor:start;stroke-width:0.26886237px"
         id="path869"
         inkscape:connector-curvature="0" />
      <path
         d="m 78.978124,127.86522 c -1.036461,0 -2.008717,0.36689 -2.008717,1.70604 v 0.22013 h -0.74295 v 0.53199 h 0.74295 v 4.05412 h 0.779639 v -4.05412 h 1.40335 v -0.53199 h -1.40335 v -0.22013 c 0,-0.88054 0.449439,-1.22908 1.284111,-1.22908 0.146756,0 0.3302,0.0183 0.559506,0.0459 v -0.48613 c -0.220133,-0.0275 -0.421922,-0.0367 -0.614539,-0.0367 z"
         style="font-style:normal;font-variant:normal;font-weight:500;font-stretch:normal;font-size:9.17222214px;font-family:Nauman;-inkscape-font-specification:'Nauman, Medium';font-variant-ligatures:no-common-ligatures;font-variant-caps:normal;font-variant-numeric:normal;font-feature-settings:normal;text-align:start;letter-spacing:0.83079165px;writing-mode:lr-tb;text-anchor:start;stroke-width:0.26886237px"
         id="path871"
         inkscape:connector-curvature="0" />
      <path
         d="m 83.481389,127.86522 c -1.036462,0 -2.008717,0.36689 -2.008717,1.70604 v 0.22013 h -0.74295 v 0.53199 h 0.74295 v 4.05412 h 0.779639 v -4.05412 h 1.40335 v -0.53199 h -1.40335 v -0.22013 c 0,-0.88054 0.449439,-1.22908 1.284111,-1.22908 0.146755,0 0.3302,0.0183 0.559505,0.0459 v -0.48613 c -0.220133,-0.0275 -0.421922,-0.0367 -0.614538,-0.0367 z"
         style="font-style:normal;font-variant:normal;font-weight:500;font-stretch:normal;font-size:9.17222214px;font-family:Nauman;-inkscape-font-specification:'Nauman, Medium';font-variant-ligatures:no-common-ligatures;font-variant-caps:normal;font-variant-numeric:normal;font-feature-settings:normal;text-align:start;letter-spacing:0.83079165px;writing-mode:lr-tb;text-anchor:start;stroke-width:0.26886237px"
         id="path873"
         inkscape:connector-curvature="0" />
      <path
         d="m 87.386595,129.69967 c -1.724378,0 -2.357262,1.12818 -2.357262,2.38478 0,1.73355 1.091495,2.38477 2.458156,2.38477 0.559506,0 1.1557,-0.11006 1.806928,-0.3302 v -0.53198 c -0.201789,0.0825 -0.504472,0.15592 -0.898878,0.2293 -0.394406,0.0642 -0.706261,0.1009 -0.953911,0.1009 -0.999772,0 -1.540933,-0.51365 -1.623483,-1.54094 h 3.678061 c 0.0092,-0.10089 0.01834,-0.20179 0.01834,-0.31185 0,-1.26577 -0.513644,-2.38478 -2.127955,-2.38478 z m -0.0092,0.43109 c 0.963084,0 1.421695,0.67875 1.412523,1.74273 v 0.12841 h -2.980973 v -0.12841 c 0,-1.06398 0.504473,-1.74273 1.56845,-1.74273 z"
         style="font-style:normal;font-variant:normal;font-weight:500;font-stretch:normal;font-size:9.17222214px;font-family:Nauman;-inkscape-font-specification:'Nauman, Medium';font-variant-ligatures:no-common-ligatures;font-variant-caps:normal;font-variant-numeric:normal;font-feature-settings:normal;text-align:start;letter-spacing:0.83079165px;writing-mode:lr-tb;text-anchor:start;stroke-width:0.26886237px"
         id="path875"
         inkscape:connector-curvature="0" />
      <path
         d="m 93.609649,129.69967 c -1.724377,0 -2.357261,1.12818 -2.357261,2.38478 0,1.73355 1.091495,2.38477 2.458156,2.38477 0.559505,0 1.1557,-0.11006 1.806928,-0.3302 v -0.53198 c -0.201789,0.0825 -0.504473,0.15592 -0.898878,0.2293 -0.394406,0.0642 -0.706261,0.1009 -0.953911,0.1009 -0.999772,0 -1.540934,-0.51365 -1.623484,-1.54094 h 3.678062 c 0.0092,-0.10089 0.01834,-0.20179 0.01834,-0.31185 0,-1.26577 -0.513644,-2.38478 -2.127956,-2.38478 z m -0.0092,0.43109 c 0.963084,0 1.421695,0.67875 1.412522,1.74273 v 0.12841 h -2.980972 v -0.12841 c 0,-1.06398 0.504472,-1.74273 1.56845,-1.74273 z"
         style="font-style:normal;font-variant:normal;font-weight:500;font-stretch:normal;font-size:9.17222214px;font-family:Nauman;-inkscape-font-specification:'Nauman, Medium';font-variant-ligatures:no-common-ligatures;font-variant-caps:normal;font-variant-numeric:normal;font-feature-settings:normal;text-align:start;letter-spacing:0.83079165px;writing-mode:lr-tb;text-anchor:start;stroke-width:0.26886237px"
         id="path877"
         inkscape:connector-curvature="0" />
    </g>
    <g
       aria-label="sydney's deaf cafe"
       style="font-style:normal;font-variant:normal;font-weight:600;font-stretch:normal;font-size:3.52777767px;line-height:125%;font-family:Nauman;-inkscape-font-specification:'Nauman, Semi-Bold';font-variant-ligatures:normal;font-variant-caps:normal;font-variant-numeric:normal;font-feature-settings:normal;text-align:start;letter-spacing:-0.00529167px;word-spacing:0px;writing-mode:lr-tb;text-anchor:start;fill:#000000;fill-opacity:1;stroke:none;stroke-width:0.26886237px;stroke-linecap:butt;stroke-linejoin:miter;stroke-opacity:1"
       id="text25"
       transform="matrix(0.98406707,0,0,0.98410173,2.9307604,2.4735137)">
      <path
         d="m 64.192755,138.41758 c -0.409223,0 -0.800806,0.14817 -0.800806,0.508 0,0.21873 0.116417,0.32456 0.254,0.39159 0.05644,0.0282 0.176389,0.0564 0.232833,0.0705 l 0.123473,0.0212 c 0.02469,0.004 0.04233,0.007 0.05292,0.007 0.03175,0.0106 0.144639,0.0212 0.176389,0.0317 0.01764,0.004 0.04233,0.007 0.07761,0.0176 0.07056,0.0141 0.08819,0.0247 0.141111,0.0529 0.09172,0.0388 0.141111,0.127 0.141111,0.24695 0,0.21519 -0.165805,0.32102 -0.500944,0.32102 -0.225778,0 -0.472722,-0.067 -0.737306,-0.20461 v 0.20109 c 0.278695,0.11288 0.536223,0.16933 0.779639,0.16933 0.469195,0 0.754945,-0.16933 0.754945,-0.52564 0,-0.127 -0.03528,-0.23283 -0.112889,-0.29633 -0.05644,-0.0529 -0.08467,-0.0847 -0.165806,-0.11642 -0.08114,-0.0317 -0.109361,-0.0459 -0.204611,-0.0635 l -0.09878,-0.0212 -0.102305,-0.0176 -0.08819,-0.0176 c -0.112888,-0.0176 -0.186972,-0.0353 -0.225777,-0.0494 -0.130528,-0.0423 -0.197556,-0.127 -0.197556,-0.25048 0,-0.21166 0.243417,-0.31044 0.518583,-0.31044 0.201084,0 0.402167,0.0388 0.60325,0.11994 v -0.17991 c -0.1905,-0.0706 -0.398638,-0.10584 -0.620888,-0.10584 z"
         style="font-style:normal;font-variant:normal;font-weight:500;font-stretch:normal;font-size:3.52777767px;font-family:Nauman;-inkscape-font-specification:'Nauman, Medium';font-variant-ligatures:normal;font-variant-caps:normal;font-variant-numeric:normal;font-feature-settings:normal;text-align:start;letter-spacing:0.0635px;word-spacing:0px;writing-mode:lr-tb;text-anchor:start;stroke-width:0.26886237px"
         id="path834"
         inkscape:connector-curvature="0" />
      <path
         d="m 65.538216,138.45286 h -0.303389 l 0.709083,1.76389 h 0.06703 l -0.246944,0.635 h 0.268111 l 0.963083,-2.39889 h -0.299861 l -0.582083,1.48167 z"
         style="font-style:normal;font-variant:normal;font-weight:500;font-stretch:normal;font-size:3.52777767px;font-family:Nauman;-inkscape-font-specification:'Nauman, Medium';font-variant-ligatures:normal;font-variant-caps:normal;font-variant-numeric:normal;font-feature-settings:normal;text-align:start;letter-spacing:0.0635px;word-spacing:0px;writing-mode:lr-tb;text-anchor:start;stroke-width:0.26886237px"
         id="path836"
         inkscape:connector-curvature="0" />
      <path
         d="m 68.991965,137.74731 h -0.299861 v 0.85372 c -0.204611,-0.12347 -0.409222,-0.18345 -0.613833,-0.18345 -0.578556,0 -0.797278,0.42334 -0.797278,0.92075 0,0.48331 0.225778,0.9137 0.814917,0.9137 0.208139,0 0.455083,-0.11289 0.624416,-0.26811 l 0.01058,0.23283 h 0.261055 z m -0.807861,0.87489 c 0.169333,0.004 0.338667,0.0564 0.508,0.16227 v 1.016 c -0.130528,0.14464 -0.331611,0.24342 -0.511528,0.24695 -0.409222,0 -0.60325,-0.27164 -0.60325,-0.71261 0,-0.41628 0.172861,-0.71261 0.606778,-0.71261 z"
         style="font-style:normal;font-variant:normal;font-weight:500;font-stretch:normal;font-size:3.52777767px;font-family:Nauman;-inkscape-font-specification:'Nauman, Medium';font-variant-ligatures:normal;font-variant-caps:normal;font-variant-numeric:normal;font-feature-settings:normal;text-align:start;letter-spacing:0.0635px;word-spacing:0px;writing-mode:lr-tb;text-anchor:start;stroke-width:0.26886237px"
         id="path838"
         inkscape:connector-curvature="0" />
      <path
         d="m 70.654541,138.42111 c -0.254,0 -0.564445,0.11642 -0.758472,0.26811 v -0.23636 h -0.299862 v 1.76389 h 0.299862 v -1.32997 c 0.15875,-0.1517 0.426861,-0.26106 0.649111,-0.26106 0.208139,0 0.373944,0.0917 0.373944,0.3422 v 1.24883 h 0.299861 v -1.28411 c 0,-0.33867 -0.236361,-0.51153 -0.564444,-0.51153 z"
         style="font-style:normal;font-variant:normal;font-weight:500;font-stretch:normal;font-size:3.52777767px;font-family:Nauman;-inkscape-font-specification:'Nauman, Medium';font-variant-ligatures:normal;font-variant-caps:normal;font-variant-numeric:normal;font-feature-settings:normal;text-align:start;letter-spacing:0.0635px;word-spacing:0px;writing-mode:lr-tb;text-anchor:start;stroke-width:0.26886237px"
         id="path840"
         inkscape:connector-curvature="0" />
      <path
         d="m 72.627892,138.41758 c -0.663223,0 -0.906639,0.43392 -0.906639,0.91723 0,0.66675 0.419805,0.91722 0.945444,0.91722 0.215195,0 0.4445,-0.0423 0.694972,-0.127 v -0.20461 c -0.07761,0.0317 -0.194027,0.06 -0.345722,0.0882 -0.151694,0.0247 -0.271639,0.0388 -0.366889,0.0388 -0.384528,0 -0.592666,-0.19756 -0.624416,-0.59267 h 1.414638 c 0.0035,-0.0388 0.0071,-0.0776 0.0071,-0.11994 0,-0.48684 -0.197556,-0.91723 -0.818444,-0.91723 z m -0.0035,0.16581 c 0.370416,0 0.546805,0.26106 0.543278,0.67028 v 0.0494 h -1.146528 v -0.0494 c 0,-0.40922 0.194028,-0.67028 0.60325,-0.67028 z"
         style="font-style:normal;font-variant:normal;font-weight:500;font-stretch:normal;font-size:3.52777767px;font-family:Nauman;-inkscape-font-specification:'Nauman, Medium';font-variant-ligatures:normal;font-variant-caps:normal;font-variant-numeric:normal;font-feature-settings:normal;text-align:start;letter-spacing:0.0635px;word-spacing:0px;writing-mode:lr-tb;text-anchor:start;stroke-width:0.26886237px"
         id="path842"
         inkscape:connector-curvature="0" />
      <path
         d="m 74.032884,138.45286 h -0.303389 l 0.709084,1.76389 h 0.06703 l -0.246944,0.635 h 0.268111 l 0.963083,-2.39889 h -0.299861 l -0.582083,1.48167 z"
         style="font-style:normal;font-variant:normal;font-weight:500;font-stretch:normal;font-size:3.52777767px;font-family:Nauman;-inkscape-font-specification:'Nauman, Medium';font-variant-ligatures:normal;font-variant-caps:normal;font-variant-numeric:normal;font-feature-settings:normal;text-align:start;letter-spacing:0.0635px;word-spacing:0px;writing-mode:lr-tb;text-anchor:start;stroke-width:0.26886237px"
         id="path844"
         inkscape:connector-curvature="0" />
      <path
         d="m 76.098563,137.67322 h -0.282222 l 0.02822,0.82198 h 0.229305 z"
         style="font-style:normal;font-variant:normal;font-weight:500;font-stretch:normal;font-size:3.52777767px;font-family:Nauman;-inkscape-font-specification:'Nauman, Medium';font-variant-ligatures:normal;font-variant-caps:normal;font-variant-numeric:normal;font-feature-settings:normal;text-align:start;letter-spacing:0.0635px;word-spacing:0px;writing-mode:lr-tb;text-anchor:start;stroke-width:0.26886237px"
         id="path846"
         inkscape:connector-curvature="0" />
      <path
         d="m 77.301425,138.41758 c -0.409222,0 -0.800806,0.14817 -0.800806,0.508 0,0.21873 0.116417,0.32456 0.254,0.39159 0.05644,0.0282 0.176389,0.0564 0.232834,0.0705 l 0.123472,0.0212 c 0.02469,0.004 0.04233,0.007 0.05292,0.007 0.03175,0.0106 0.144639,0.0212 0.176389,0.0317 0.01764,0.004 0.04233,0.007 0.07761,0.0176 0.07056,0.0141 0.08819,0.0247 0.141112,0.0529 0.09172,0.0388 0.141111,0.127 0.141111,0.24695 0,0.21519 -0.165806,0.32102 -0.500945,0.32102 -0.225778,0 -0.472722,-0.067 -0.737305,-0.20461 v 0.20109 c 0.278694,0.11288 0.536222,0.16933 0.779639,0.16933 0.469194,0 0.754944,-0.16933 0.754944,-0.52564 0,-0.127 -0.03528,-0.23283 -0.112889,-0.29633 -0.05644,-0.0529 -0.08467,-0.0847 -0.165805,-0.11642 -0.08114,-0.0317 -0.109362,-0.0459 -0.204612,-0.0635 l -0.09878,-0.0212 -0.102306,-0.0176 -0.08819,-0.0176 c -0.112889,-0.0176 -0.186973,-0.0353 -0.225778,-0.0494 -0.130528,-0.0423 -0.197556,-0.127 -0.197556,-0.25048 0,-0.21166 0.243417,-0.31044 0.518584,-0.31044 0.201083,0 0.402166,0.0388 0.60325,0.11994 v -0.17991 c -0.1905,-0.0706 -0.398639,-0.10584 -0.620889,-0.10584 z"
         style="font-style:normal;font-variant:normal;font-weight:500;font-stretch:normal;font-size:3.52777767px;font-family:Nauman;-inkscape-font-specification:'Nauman, Medium';font-variant-ligatures:normal;font-variant-caps:normal;font-variant-numeric:normal;font-feature-settings:normal;text-align:start;letter-spacing:0.0635px;word-spacing:0px;writing-mode:lr-tb;text-anchor:start;stroke-width:0.26886237px"
         id="path848"
         inkscape:connector-curvature="0" />
      <path
         d="m 81.19113,137.74731 h -0.299861 v 0.85372 c -0.204611,-0.12347 -0.409222,-0.18345 -0.613833,-0.18345 -0.578556,0 -0.797278,0.42334 -0.797278,0.92075 0,0.48331 0.225778,0.9137 0.814917,0.9137 0.208139,0 0.455083,-0.11289 0.624416,-0.26811 l 0.01058,0.23283 h 0.261055 z m -0.807861,0.87489 c 0.169334,0.004 0.338667,0.0564 0.508,0.16227 v 1.016 c -0.130528,0.14464 -0.331611,0.24342 -0.511528,0.24695 -0.409222,0 -0.60325,-0.27164 -0.60325,-0.71261 0,-0.41628 0.172862,-0.71261 0.606778,-0.71261 z"
         style="font-style:normal;font-variant:normal;font-weight:500;font-stretch:normal;font-size:3.52777767px;font-family:Nauman;-inkscape-font-specification:'Nauman, Medium';font-variant-ligatures:normal;font-variant-caps:normal;font-variant-numeric:normal;font-feature-settings:normal;text-align:start;letter-spacing:0.0635px;word-spacing:0px;writing-mode:lr-tb;text-anchor:start;stroke-width:0.26886237px"
         id="path850"
         inkscape:connector-curvature="0" />
      <path
         d="m 82.613817,138.41758 c -0.663222,0 -0.906639,0.43392 -0.906639,0.91723 0,0.66675 0.419806,0.91722 0.945445,0.91722 0.215194,0 0.4445,-0.0423 0.694972,-0.127 v -0.20461 c -0.07761,0.0317 -0.194028,0.06 -0.345722,0.0882 -0.151695,0.0247 -0.271639,0.0388 -0.366889,0.0388 -0.384528,0 -0.592667,-0.19756 -0.624417,-0.59267 h 1.414639 c 0.0035,-0.0388 0.0071,-0.0776 0.0071,-0.11994 0,-0.48684 -0.197556,-0.91723 -0.818445,-0.91723 z m -0.0035,0.16581 c 0.370417,0 0.546806,0.26106 0.543278,0.67028 v 0.0494 h -1.146528 v -0.0494 c 0,-0.40922 0.194028,-0.67028 0.60325,-0.67028 z"
         style="font-style:normal;font-variant:normal;font-weight:500;font-stretch:normal;font-size:3.52777767px;font-family:Nauman;-inkscape-font-specification:'Nauman, Medium';font-variant-ligatures:normal;font-variant-caps:normal;font-variant-numeric:normal;font-feature-settings:normal;text-align:start;letter-spacing:0.0635px;word-spacing:0px;writing-mode:lr-tb;text-anchor:start;stroke-width:0.26886237px"
         id="path852"
         inkscape:connector-curvature="0" />
      <path
         d="m 84.708931,138.41758 c -0.232833,0 -0.479777,0.0388 -0.740833,0.11995 v 0.1905 c 0.278694,-0.0811 0.511528,-0.12347 0.705556,-0.12347 0.306916,0 0.518583,0.11289 0.518583,0.38805 v 0.15875 h -0.705556 c -0.3175,0 -0.663222,0.16581 -0.663222,0.55034 0,0.36336 0.239889,0.5468 0.589139,0.5468 0.254,-0.004 0.543278,-0.0988 0.779639,-0.26458 v 0.23283 h 0.299861 v -1.22414 c 0,-0.43039 -0.352778,-0.57503 -0.783167,-0.57503 z m 0.483306,1.41464 c -0.211667,0.1517 -0.437445,0.22931 -0.677333,0.23284 -0.250473,0 -0.41275,-0.12348 -0.41275,-0.381 0,-0.254 0.215194,-0.381 0.479777,-0.381 h 0.610306 z"
         style="font-style:normal;font-variant:normal;font-weight:500;font-stretch:normal;font-size:3.52777767px;font-family:Nauman;-inkscape-font-specification:'Nauman, Medium';font-variant-ligatures:normal;font-variant-caps:normal;font-variant-numeric:normal;font-feature-settings:normal;text-align:start;letter-spacing:0.0635px;word-spacing:0px;writing-mode:lr-tb;text-anchor:start;stroke-width:0.26886237px"
         id="path854"
         inkscape:connector-curvature="0" />
      <path
         d="m 87.008492,137.71203 c -0.398639,0 -0.772583,0.14111 -0.772583,0.65617 v 0.0847 h -0.28575 v 0.20461 h 0.28575 v 1.55928 h 0.299861 v -1.55928 h 0.53975 v -0.20461 h -0.53975 v -0.0847 c 0,-0.33867 0.172861,-0.47273 0.493889,-0.47273 0.05644,0 0.127,0.007 0.215194,0.0176 v -0.18697 c -0.08467,-0.0106 -0.162278,-0.0141 -0.236361,-0.0141 z"
         style="font-style:normal;font-variant:normal;font-weight:500;font-stretch:normal;font-size:3.52777767px;font-family:Nauman;-inkscape-font-specification:'Nauman, Medium';font-variant-ligatures:normal;font-variant-caps:normal;font-variant-numeric:normal;font-feature-settings:normal;text-align:start;letter-spacing:0.0635px;word-spacing:0px;writing-mode:lr-tb;text-anchor:start;stroke-width:0.26886237px"
         id="path856"
         inkscape:connector-curvature="0" />
      <path
         d="m 89.444753,138.41758 c -0.497417,0 -0.917222,0.30692 -0.917222,0.91723 0,0.6103 0.419805,0.91016 0.906639,0.91722 0.215194,0 0.419805,-0.0494 0.620889,-0.14817 v -0.20814 c -0.169334,0.0811 -0.335139,0.127 -0.500945,0.13053 -0.02822,0.004 -0.05644,0.004 -0.08467,0.004 -0.409223,0 -0.642056,-0.21872 -0.642056,-0.69497 0,-0.47625 0.232833,-0.69498 0.642056,-0.69498 0.02822,0 0.05644,0 0.08467,0.004 0.165806,0.004 0.331611,0.0494 0.500945,0.13053 v -0.21167 c -0.201084,-0.0952 -0.405695,-0.14464 -0.610306,-0.14464 z"
         style="font-style:normal;font-variant:normal;font-weight:500;font-stretch:normal;font-size:3.52777767px;font-family:Nauman;-inkscape-font-specification:'Nauman, Medium';font-variant-ligatures:normal;font-variant-caps:normal;font-variant-numeric:normal;font-feature-settings:normal;text-align:start;letter-spacing:0.0635px;word-spacing:0px;writing-mode:lr-tb;text-anchor:start;stroke-width:0.26886237px"
         id="path858"
         inkscape:connector-curvature="0" />
      <path
         d="m 91.329468,138.41758 c -0.232833,0 -0.479778,0.0388 -0.740833,0.11995 v 0.1905 c 0.278694,-0.0811 0.511528,-0.12347 0.705555,-0.12347 0.306917,0 0.518584,0.11289 0.518584,0.38805 v 0.15875 h -0.705556 c -0.3175,0 -0.663222,0.16581 -0.663222,0.55034 0,0.36336 0.239889,0.5468 0.589139,0.5468 0.254,-0.004 0.543278,-0.0988 0.779639,-0.26458 v 0.23283 h 0.299861 v -1.22414 c 0,-0.43039 -0.352778,-0.57503 -0.783167,-0.57503 z m 0.483306,1.41464 c -0.211667,0.1517 -0.437445,0.22931 -0.677334,0.23284 -0.250472,0 -0.41275,-0.12348 -0.41275,-0.381 0,-0.254 0.215195,-0.381 0.479778,-0.381 h 0.610306 z"
         style="font-style:normal;font-variant:normal;font-weight:500;font-stretch:normal;font-size:3.52777767px;font-family:Nauman;-inkscape-font-specification:'Nauman, Medium';font-variant-ligatures:normal;font-variant-caps:normal;font-variant-numeric:normal;font-feature-settings:normal;text-align:start;letter-spacing:0.0635px;word-spacing:0px;writing-mode:lr-tb;text-anchor:start;stroke-width:0.26886237px"
         id="path860"
         inkscape:connector-curvature="0" />
      <path
         d="m 93.629027,137.71203 c -0.398639,0 -0.772583,0.14111 -0.772583,0.65617 v 0.0847 h -0.28575 v 0.20461 h 0.28575 v 1.55928 h 0.299861 v -1.55928 h 0.53975 v -0.20461 h -0.53975 v -0.0847 c 0,-0.33867 0.172861,-0.47273 0.493889,-0.47273 0.05644,0 0.127,0.007 0.215194,0.0176 v -0.18697 c -0.08467,-0.0106 -0.162278,-0.0141 -0.236361,-0.0141 z"
         style="font-style:normal;font-variant:normal;font-weight:500;font-stretch:normal;font-size:3.52777767px;font-family:Nauman;-inkscape-font-specification:'Nauman, Medium';font-variant-ligatures:normal;font-variant-caps:normal;font-variant-numeric:normal;font-feature-settings:normal;text-align:start;letter-spacing:0.0635px;word-spacing:0px;writing-mode:lr-tb;text-anchor:start;stroke-width:0.26886237px"
         id="path862"
         inkscape:connector-curvature="0" />
      <path
         d="m 94.874994,138.41758 c -0.663222,0 -0.906639,0.43392 -0.906639,0.91723 0,0.66675 0.419806,0.91722 0.945445,0.91722 0.215194,0 0.4445,-0.0423 0.694972,-0.127 v -0.20461 c -0.07761,0.0317 -0.194028,0.06 -0.345722,0.0882 -0.151695,0.0247 -0.271639,0.0388 -0.366889,0.0388 -0.384528,0 -0.592667,-0.19756 -0.624417,-0.59267 h 1.414639 c 0.0035,-0.0388 0.0071,-0.0776 0.0071,-0.11994 0,-0.48684 -0.197556,-0.91723 -0.818445,-0.91723 z m -0.0035,0.16581 c 0.370416,0 0.546805,0.26106 0.543277,0.67028 v 0.0494 h -1.146527 v -0.0494 c 0,-0.40922 0.194027,-0.67028 0.60325,-0.67028 z"
         style="font-style:normal;font-variant:normal;font-weight:500;font-stretch:normal;font-size:3.52777767px;font-family:Nauman;-inkscape-font-specification:'Nauman, Medium';font-variant-ligatures:normal;font-variant-caps:normal;font-variant-numeric:normal;font-feature-settings:normal;text-align:start;letter-spacing:0.0635px;word-spacing:0px;writing-mode:lr-tb;text-anchor:start;stroke-width:0.26886237px"
         id="path864"
         inkscape:connector-curvature="0" />
    </g>
  </g>
</svg>
