<?xml version="1.0" encoding="UTF-8" standalone="no"?>
<svg
   xmlns:dc="http://purl.org/dc/elements/1.1/"
   xmlns:cc="http://creativecommons.org/ns#"
   xmlns:rdf="http://www.w3.org/1999/02/22-rdf-syntax-ns#"
   xmlns:svg="http://www.w3.org/2000/svg"
   xmlns="http://www.w3.org/2000/svg"
   id="svg8"
   version="1.1"
   viewBox="0 0 92.411339 71.035713"
   height="71.035713mm"
   width="92.411339mm">
  <defs
     id="defs2">
    <filter
       height="1.043889"
       y="-0.021944517"
       width="1.0529608"
       x="-0.026480341"
       id="filter1096"
       style="color-interpolation-filters:sRGB">
      <feGaussianBlur
         id="feGaussianBlur1098"
         stdDeviation="0.54054217" />
    </filter>
  </defs>
  <metadata
     id="metadata5">
    <rdf:RDF>
      <cc:Work
         rdf:about="">
        <dc:format>image/svg+xml</dc:format>
        <dc:type
           rdf:resource="http://purl.org/dc/dcmitype/StillImage" />
        <dc:title></dc:title>
      </cc:Work>
    </rdf:RDF>
  </metadata>
  <g
     transform="translate(-69.482143,-112.98214)"
     id="layer1">
    <path
       id="rect1100"
       d="m 141.04669,143.07344 a 37.009242,37.009242 0 0 1 0.43356,5.42654 37.009242,37.009242 0 0 1 -0.447,5.42654 h 20.86023 v -10.85308 z"
       style="color:#000000;display:inline;overflow:visible;visibility:visible;opacity:1;fill:#000000;fill-opacity:1;fill-rule:evenodd;stroke:none;stroke-width:3;stroke-linecap:round;stroke-linejoin:round;stroke-miterlimit:4;stroke-dasharray:none;stroke-dashoffset:0;stroke-opacity:1;marker:none;paint-order:normal;enable-background:accumulate" />
    <circle
       r="34.017857"
       cy="148.5"
       cx="105"
       id="circle1090"
       style="color:#000000;display:inline;overflow:visible;visibility:visible;opacity:1;fill:#634832;fill-opacity:1;fill-rule:evenodd;stroke:#060000;stroke-width:0;stroke-linecap:round;stroke-linejoin:round;stroke-miterlimit:4;stroke-dasharray:none;stroke-dashoffset:0;stroke-opacity:1;marker:none;paint-order:normal;enable-background:accumulate" />
    <path
       id="path840"
       d="m 96.436481,120.75776 c -3.71138,-0.0583 -2.551873,4.18112 -1.716181,6.38687 1.618966,5.62266 3.230915,11.2704 4.294834,17.02565 -0.731821,2.27933 -1.753459,-2.90405 -2.404914,-3.77557 -2.010627,-4.29812 -4.216105,-8.52071 -6.229183,-12.80533 -2.697466,-2.11029 -4.823705,2.0425 -2.958632,4.1809 2.275195,5.72107 5.059678,11.2825 6.717575,17.2214 0.05767,3.70691 -2.659911,-0.64589 -3.240558,-2.03416 -2.047864,-3.26917 -3.798502,-6.77605 -6.215711,-9.78424 -3.539415,-0.38143 -2.253713,4.20736 -1.065902,6.01812 2.476437,5.35634 5.457565,10.55035 6.776313,16.35619 1.521807,5.10231 3.799227,10.00845 7.213245,14.1289 2.396493,2.17081 2.490063,7.31297 6.699093,6.18294 4.61409,-0.0913 10.76759,-0.64171 14.13109,-3.46381 -1.007,-2.82958 0.99694,-5.08748 2.59258,-7.15914 1.8933,-3.14365 4.04956,-6.20167 5.46134,-9.59128 0.62783,-2.66699 -0.51708,-5.4797 0.71695,-8.02685 1.10204,-3.3646 2.37779,-6.67673 4.00031,-9.82197 -0.78313,-3.07892 -5.40639,-0.68983 -6.86487,0.99197 -3.01277,2.78766 -3.41955,7.27922 -6.04924,10.30438 -2.69965,-0.0977 -4.12049,-3.83152 -5.44405,-5.94212 -2.03323,-3.68509 -1.82632,-7.99617 -2.96226,-11.95689 -1.08033,-4.351 -1.87488,-8.9472 -4.2621,-12.81153 -1.78723,-2.84331 -5.78018,-0.34858 -4.24918,2.57487 1.17079,5.45299 2.68561,10.84045 3.32516,16.39548 -0.16642,2.25541 -1.12708,-2.7777 -1.26281,-3.39666 -1.34046,-5.35056 -2.63166,-10.80436 -5.040996,-15.79059 -0.357561,-0.74579 -1.082699,-1.45218 -1.961903,-1.40753 z"
       style="fill:#967259;fill-opacity:1;stroke:#967259;stroke-width:1.46500003;stroke-miterlimit:4;stroke-dasharray:none;stroke-opacity:1" />
    <path
       id="path815"
       d="m 96.436481,120.75776 c -0.233042,0.011 -0.585533,0.0553 -1.062984,0.18759 -0.954898,0.26458 -1.071637,0.44077 -1.541508,1.49913 0,0 -0.117115,0.76433 0.117822,1.85208 0.234936,1.08776 1.364776,4.88032 1.364776,4.88032 1.096367,3.84145 1.977596,7.19268 2.643248,10.05417 0.704808,2.86148 1.057299,4.50805 1.057299,4.93923 0.168627,1.38175 -0.59468,0.73484 -0.763775,0.47026 -0.169095,-0.2646 -0.704869,-1.94046 -0.704869,-1.94046 -0.430715,-1.29354 -1.507426,-3.64511 -3.230292,-7.05537 -1.722866,-3.41027 -2.760583,-5.54655 -3.11299,-6.40892 -0.313248,-0.82316 -0.587235,-1.37202 -0.822171,-1.64641 -0.234937,-0.23519 -0.508924,-0.41157 -0.822172,-0.52916 -0.274092,-0.0784 -0.665578,-0.0587 -1.174604,0.0589 -0.469874,0.15679 -0.842119,0.35289 -1.116211,0.58808 -0.274093,0.27438 -0.45034,0.64634 -0.528651,1.11672 0,0 -0.07267,0.47069 0.162264,1.49965 0.234936,1.02896 3.479374,8.43721 3.479374,8.43721 2.505987,6.15415 3.758943,9.56453 3.758943,10.2309 0.447611,2.27841 -1.049737,1.54335 -1.233517,1.29346 -0.183777,-0.24989 -3.876249,-6.46782 -3.876249,-6.46782 -2.584299,-4.31183 -4.033255,-6.52644 -4.346503,-6.64404 -0.274093,-0.11759 -0.548079,-0.1565 -0.822172,-0.11731 -0.274092,0.0392 -0.606829,0.2545 -0.998389,0.64648 -0.391562,0.43118 -0.58756,0.86228 -0.58756,1.29346 0,0.47038 0.157006,1.17591 0.470254,2.11666 0.313249,0.94077 1.428954,3.35148 3.347599,7.23212 1.918647,3.91985 3.112854,6.80108 3.582728,8.6434 0.469873,1.88153 1.116105,3.91976 1.938382,6.11487 0.861433,2.23431 1.664158,4.01784 2.408121,5.35058 0.783122,1.37195 1.820839,2.90075 3.11299,4.58629 1.292148,1.72472 2.310111,3.23381 3.054076,4.52737 0.41251,0.68137 0.7411,1.36294 0.99064,2.04432 a 31.372021,31.372021 0 0 0 3.8194,0.26045 31.372021,31.372021 0 0 0 13.49479,-3.08405 c -0.16035,-1.07976 -0.25475,-1.89234 -0.27337,-2.39572 -0.0392,-1.01916 0.41107,-2.07745 1.35082,-3.175 0.93975,-1.09756 2.27069,-3.1358 3.99355,-6.11487 1.76202,-2.93988 2.702,-4.62536 2.81947,-5.05654 0.15662,-0.43118 0.25437,-1.27418 0.29352,-2.52853 0.0392,-1.21515 0.0199,-2.01872 -0.0584,-2.41071 -0.0783,-0.39199 -0.0783,-0.90141 0,-1.52859 0.11747,-0.58797 0.64569,-2.19511 1.58544,-4.82141 0.93974,-2.5871 1.68372,-4.37061 2.2319,-5.35058 0.54819,-0.97995 0.82269,-1.60715 0.82269,-1.88153 0.0391,-0.2744 -0.0981,-0.54882 -0.41134,-0.82321 -0.31325,-0.23519 -0.80248,-0.35295 -1.46813,-0.35295 -0.66566,0 -1.35088,0.13747 -2.05569,0.41186 -0.66565,0.27439 -1.33164,0.66606 -1.99729,1.17564 -0.66566,0.50958 -1.31189,1.13677 -1.93839,1.88154 -0.62649,0.74477 -1.4682,2.313 -2.52542,4.70411 -1.05721,2.3911 -1.76168,3.76272 -2.11408,4.1155 -0.31325,0.39199 -0.607,0.6078 -0.88108,0.647 -0.2741,0.0392 -0.74409,-0.25495 -1.40974,-0.88212 -0.62649,-0.62718 -1.31172,-1.46965 -2.05569,-2.52801 -0.70481,-1.01916 -1.39003,-2.29326 -2.05568,-3.82199 -0.66566,-1.52874 -1.0769,-2.93979 -1.23352,-4.23334 -0.11747,-1.29355 -0.4892,-3.33178 -1.1157,-6.11486 -0.58734,-2.74389 -1.17482,-5.09598 -1.76216,-7.0559 -0.58734,-1.95992 -1.11608,-3.44931 -1.58595,-4.46847 -0.46987,-1.01915 -0.92011,-1.74439 -1.35082,-2.17557 -0.39156,-0.39199 -0.88079,-0.66641 -1.46813,-0.82321 -0.58734,-0.15679 -1.11608,-0.0982 -1.58595,0.17622 -0.46987,0.31359 -0.78337,0.66635 -0.94,1.05833 -0.15662,0.39199 -0.15662,1.09751 0,2.11667 0.15663,1.01916 0.58762,2.95986 1.29243,5.82135 0.74397,2.86148 1.29194,5.48748 1.64435,7.87858 l 0.52865,3.58686 c 0,0 0.037,0.26464 -0.12454,0.29404 -0.16152,0.0294 -0.24935,-0.0149 -0.28629,-0.11782 -0.0369,-0.1029 -0.82269,-3.58634 -0.82269,-3.58634 -0.50903,-2.3911 -1.23325,-5.13538 -2.17299,-8.23205 -0.93975,-3.09668 -1.683725,-5.27187 -2.23191,-6.52622 -0.548185,-1.21515 -0.978662,-1.97981 -1.29191,-2.2934 -0.274093,-0.27439 -0.626584,-0.47048 -1.057299,-0.58808 0,0 -0.113707,-0.0219 -0.34675,-0.0108 z"
       style="fill:#ece0d1;fill-opacity:1;stroke:#dbc1ac;stroke-width:0.26458335;stroke-opacity:1;filter:url(#filter1096)" />
    <circle
       style="color:#000000;display:inline;overflow:visible;visibility:visible;opacity:1;fill:none;fill-opacity:1;fill-rule:evenodd;stroke:#060000;stroke-width:3;stroke-linecap:round;stroke-linejoin:round;stroke-miterlimit:4;stroke-dasharray:none;stroke-dashoffset:0;stroke-opacity:1;marker:none;paint-order:normal;enable-background:accumulate"
       id="circle830"
       cx="105"
       cy="148.5"
       r="34.017857" />
  </g>
</svg>
